<svg xmlns:xlink="http://www.w3.org/1999/xlink" xmlns="http://www.w3.org/2000/svg" viewBox="0 0 234.375 265.74310128341455" height="265.74310128341455" width="234.375" style="width: 234.375px; height: 265.743px; position: absolute; top: 50%; left: 50%; transform: translate(-50%, -50%) scale(0.63219); z-index: 0; cursor: pointer;"><defs id="SvgjsDefs1095"><linearGradient id="SvgjsLinearGradient1102"><stop id="SvgjsStop1103" stop-color="#8f5e25" offset="0"></stop><stop id="SvgjsStop1104" stop-color="#fbf4a1" offset="0.5"></stop><stop id="SvgjsStop1105" stop-color="#8f5e25" offset="1"></stop></linearGradient><linearGradient id="SvgjsLinearGradient1102"><stop id="SvgjsStop1103" stop-color="#8f5e25" offset="0"></stop><stop id="SvgjsStop1104" stop-color="#fbf4a1" offset="0.5"></stop><stop id="SvgjsStop1105" stop-color="#8f5e25" offset="1"></stop></linearGradient><linearGradient id="SvgjsLinearGradient1102"><stop id="SvgjsStop1103" stop-color="#8f5e25" offset="0"></stop><stop id="SvgjsStop1104" stop-color="#fbf4a1" offset="0.5"></stop><stop id="SvgjsStop1105" stop-color="#8f5e25" offset="1"></stop></linearGradient></defs><g id="SvgjsG1096" featurekey="rootContainer" transform="matrix(4.725301111045653,0,0,4.725301111045653,0.0000347689931040783,0.019721259814305742)" fill="url(&quot;#SvgjsLinearGradient1102&quot;)"><path xmlns="http://www.w3.org/2000/svg" d="M23.11 55.78L1.69 43.41A3.39 3.39 0 0 1 0 40.48V15.75a3.39 3.39 0 0 1 1.69-2.94L23.11.45a3.39 3.39 0 0 1 3.39 0l21.41 12.37a3.39 3.39 0 0 1 1.69 2.94v24.72a3.39 3.39 0 0 1-1.69 2.94L26.5 55.78a3.39 3.39 0 0 1-3.39 0z" fill="url(&quot;#SvgjsLinearGradient1102&quot;)"></path></g><g id="SvgjsG1097" featurekey="symbolFeature-0" transform="matrix(0.8008898640482653,0,0,0.8008898640482653,77.47608337612668,77.99555067975868)" fill="#70300E"><path xmlns="http://www.w3.org/2000/svg" d="M38.7,93.6c0.8-0.8,1.5-1.1,1.5-1.1c-0.1,0.6-0.1,1,0,1.5c3,0.7,6.1,0.9,9.3,0.9c4,0,7.9-0.6,11.6-1.5  c0.2-1-0.1-2.6-0.1-2.6c0.5,0.8,0.7,1.6,0.8,2.4C80.6,87.9,94.4,70.5,94.4,50c0-24.8-20.2-45-45-45c-24.9,0-45,20.2-45,45  C4.4,71.1,19,88.8,38.7,93.6z M61.7,83.9c0,4.1-6.2,6.8-6.2,6.8c-9.2,3.8-15.9-0.6-15.9-0.6c-5.8-4.5,0.7-8,0.7-8  c-0.6,3.5,2.4,5.6,2.4,5.6c4.1,3,11.7,0.9,11.7,0.9c4.5-1,6.3-4.6,6.3-4.6c0.7-0.8,0.2-3.4,0.2-3.4C61.8,81.9,61.7,83.9,61.7,83.9z   M61.7,73.4c0,4.1-6.2,6.8-6.2,6.8c-9.2,3.8-15.9-0.6-15.9-0.6c-5.8-4.5,0.7-8,0.7-8c-0.6,3.5,2.4,5.6,2.4,5.6  c4.1,3,11.7,0.9,11.7,0.9c4.5-1,6.3-4.6,6.3-4.6c0.7-0.8,0.2-3.4,0.2-3.4C61.8,71.5,61.7,73.4,61.7,73.4z M61.7,62.9  c0,4.1-6.2,6.8-6.2,6.8c-9.2,3.8-15.9-0.6-15.9-0.6c-5.8-4.5,0.7-8,0.7-8c-0.6,3.5,2.4,5.6,2.4,5.6c4.1,3,11.7,0.9,11.7,0.9  c4.5-1,6.3-4.6,6.3-4.6c0.7-0.8,0.2-3.4,0.2-3.4C61.8,61,61.7,62.9,61.7,62.9z M61.7,52.5c0,4.1-6.2,6.8-6.2,6.8  c-9.2,3.8-15.9-0.6-15.9-0.6c-5.8-4.5,0.7-8,0.7-8c-0.6,3.5,2.4,5.6,2.4,5.6c4.1,3,11.7,0.9,11.7,0.9c4.5-1,6.3-4.6,6.3-4.6  c0.7-0.8,0.2-3.4,0.2-3.4C61.8,50.5,61.7,52.5,61.7,52.5z M49.4,14.1c13.7,0,24.8,6.9,24.8,15.5S63.1,45.2,49.4,45.2  s-24.8-6.9-24.8-15.5S35.7,14.1,49.4,14.1z M49.4,47c12,0,22.1-5.2,25.5-12.3c-1.7,9.2-12.5,16.2-25.5,16.2s-23.8-7.1-25.5-16.2  C27.3,41.8,37.4,47,49.4,47z M43.9,29.9c0,0,0.7,0.6,1,7.1h8.9c0.4-6.5,1-7.1,1-7.1c1.9-3.1,9.9-1.1,9.9-1.1v-4.4  c-2-0.9-8.3-1.5-8.3-1.5c-4.7-0.2-4.6-5.8-4.6-5.8h-5c0,0,0.1,5.7-4.6,5.8c0,0-6.3,0.7-8.3,1.5v4.4C34,28.8,42,26.8,43.9,29.9z" fill="#70300E"></path></g><g id="SvgjsG1098" featurekey="nameFeature-0" transform="matrix(0.32608715122285004,0,0,0.32608715122285004,41.53392384522908,170.27350667615542)" fill="#70300E"><path d="M16.286 35.7143 l-4.2857 4.2857 l-10.571 0 l0 -6.2857 l7.4286 0 l0 -22.286 l7.4286 0 l0 24.286 z M41.429 11.428999999999998 l6.8571 0 l0 3.4286 l-9.5429 25.143 l-7.7143 0 l-9.6 -25.143 l0 -3.4286 l6.8571 0 l6.5714 18.571 z M68.57138571428571 40 l0 -24.286 l4.2857 -4.2857 l16.571 0 l4.2857 4.2857 l0 24.286 l-7.4286 0 l0 -8 l-10.286 0 l0 8 l-7.4286 0 z M76.00028571428571 25.714 l10.286 0 l0 -8 l-10.286 0 l0 8 z M118.28557142857142 17.714 l-10.571 0 l0 4.8571 l14 0 l4.2857 4.2857 l0 8.8571 l-4.2857 4.2857 l-17.143 0 l-4.2857 -4.2857 l0 -4.2857 l5.4286 0 l2.2857 2.2857 l10.571 0 l0 -4.8571 l-14 0 l-4.2857 -4.2857 l0 -8.8571 l4.2857 -4.2857 l17.143 0 l4.2857 4.2857 l0 4.2857 l-5.4286 0 z M150.5712857142857 17.714 l-10.571 0 l0 4.8571 l14 0 l4.2857 4.2857 l0 8.8571 l-4.2857 4.2857 l-17.143 0 l-4.2857 -4.2857 l0 -4.2857 l5.4286 0 l2.2857 2.2857 l10.571 0 l0 -4.8571 l-14 0 l-4.2857 -4.2857 l0 -8.8571 l4.2857 -4.2857 l17.143 0 l4.2857 4.2857 l0 4.2857 l-5.4286 0 z M185.71399999999997 11.428999999999998 l4.2857 4.2857 l0 20 l-4.2857 4.2857 l-16.571 0 l-4.2857 -4.2857 l0 -20 l4.2857 -4.2857 l16.571 0 z M182.57099999999997 33.7143 l0 -16 l-10.286 0 l0 16 l10.286 0 z M213.1432857142857 17.714 l-9.1429 0 l0 16 l9.1429 0 l2.2857 -2.2857 l5.4286 0 l0 4.2857 l-4.2857 4.2857 l-15.714 0 l-4.2857 -4.2857 l0 -20 l4.2857 -4.2857 l15.714 0 l4.2857 4.2857 l0 4.2857 l-5.4286 0 z M226.57142857142856 40 l0 -5.7143 l2.2857 0 l0 -17.143 l-2.2857 0 l0 -5.7143 l12 0 l0 5.7143 l-2.2857 0 l0 17.143 l2.2857 0 l0 5.7143 l-12 0 z M244.28567142857142 40 l0 -24.286 l4.2857 -4.2857 l16.571 0 l4.2857 4.2857 l0 24.286 l-7.4286 0 l0 -8 l-10.286 0 l0 8 l-7.4286 0 z M251.71457142857142 25.714 l10.286 0 l0 -8 l-10.286 0 l0 8 z M273.9999971428571 17.714 l0 -6.2857 l24.286 0 l0 6.2857 l-8.4571 0 l0 22.286 l-7.4286 0 l0 -22.286 l-8.4 0 z M327.1429999999999 17.714 l-16.857 0 l0 4.8571 l14.571 0 l0 6.2857 l-14.571 0 l0 4.8571 l16.857 0 l0 6.2857 l-20 0 l-4.2857 -4.2857 l0 -24.286 l24.286 0 l0 6.2857 z M351.71414285714275 17.714 l-10.571 0 l0 4.8571 l14 0 l4.2857 4.2857 l0 8.8571 l-4.2857 4.2857 l-17.143 0 l-4.2857 -4.2857 l0 -4.2857 l5.4286 0 l2.2857 2.2857 l10.571 0 l0 -4.8571 l-14 0 l-4.2857 -4.2857 l0 -8.8571 l4.2857 -4.2857 l17.143 0 l4.2857 4.2857 l0 4.2857 l-5.4286 0 z M381.1428142857142 35.7143 l0 -24.286 l7.4286 0 l0 22.286 l15.429 0 l0 6.2857 l-18.571 0 z M409.1428142857142 35.7143 l0 -24.286 l7.4286 0 l0 22.286 l15.429 0 l0 6.2857 l-18.571 0 z M453.7147142857142 17.714 l-9.1429 0 l0 16 l9.1429 0 l2.2857 -2.2857 l5.4286 0 l0 4.2857 l-4.2857 4.2857 l-15.714 0 l-4.2857 -4.2857 l0 -20 l4.2857 -4.2857 l15.714 0 l4.2857 4.2857 l0 4.2857 l-5.4286 0 z" fill="#70300E"></path></g></svg>