<svg xmlns:xlink="http://www.w3.org/1999/xlink" xmlns="http://www.w3.org/2000/svg" viewBox="0 -5 200 181.45810577782703" height="181.45810577782703" width="200" style="width: 200px; height: 181.458px; position: absolute; top: 50%; left: 50%; transform: translate(-50%, -50%) scale(0.727441); z-index: 0; cursor: pointer;"><defs id="SvgjsDefs1583"><linearGradient id="SvgjsLinearGradient1588"><stop id="SvgjsStop1589" stop-color="#b88746" offset="0"></stop><stop id="SvgjsStop1590" stop-color="#fdf5a6" offset="1"></stop></linearGradient><linearGradient id="SvgjsLinearGradient1588"><stop id="SvgjsStop1589" stop-color="#b88746" offset="0"></stop><stop id="SvgjsStop1590" stop-color="#fdf5a6" offset="1"></stop></linearGradient><linearGradient id="SvgjsLinearGradient1588"><stop id="SvgjsStop1589" stop-color="#b88746" offset="0"></stop><stop id="SvgjsStop1590" stop-color="#fdf5a6" offset="1"></stop></linearGradient></defs><g id="SvgjsG1584" featurekey="symbolFeature-0" transform="matrix(1.3931413012297669,0,0,1.3931413012297669,30.073912904841414,-14.055418457993484)" fill="url(&quot;#SvgjsLinearGradient1588&quot;)"><path xmlns="http://www.w3.org/2000/svg" d="M63.512,31.339c-0.505-0.216-1.096,0.014-1.315,0.521c-0.219,0.507,0.014,1.095,0.521,1.315  c11.235,4.862,18.494,15.912,18.494,28.152c0,12.67-7.726,23.568-18.712,28.235V75.5c0-0.446-0.295-0.839-0.725-0.962L58.5,73.603  V46c0-0.019-0.008-0.035-0.009-0.054c-0.002-0.042-0.012-0.081-0.02-0.122c-0.014-0.079-0.035-0.153-0.067-0.225  c-0.017-0.039-0.035-0.074-0.057-0.11c-0.042-0.07-0.092-0.13-0.15-0.188c-0.027-0.027-0.05-0.056-0.081-0.08  c-0.094-0.075-0.198-0.138-0.318-0.175c-0.409-0.129-1.892-0.58-3.3-0.845V28.5c0-1.103-0.897-2-2-2h-1v-19c0-0.552-0.448-1-1-1  S49.5,6.948,49.5,7.5v26h-1.002c-1.654,0-2.998,1.346-2.998,3v24.812c-2.079,0.312-4.062,0.682-4.177,0.702  C40.848,62.1,40.5,62.515,40.5,63v27.287c-11.983-4.171-20.609-15.573-20.609-28.959c0-12.228,7.25-23.274,18.469-28.141  c0.507-0.22,0.739-0.809,0.52-1.315c-0.219-0.507-0.81-0.739-1.315-0.52c-11.951,5.185-19.673,16.951-19.673,29.976  c0,18.009,14.651,32.66,32.66,32.66c18.008,0,32.66-14.651,32.66-32.66C83.211,48.29,75.479,36.519,63.512,31.339z M47.5,60.5  c0-0.552,0.449-1,1-1h1V61v0.044c-0.524-0.085-1.068-0.102-1.618-0.037c-0.124,0.015-0.253,0.031-0.382,0.047V60.5z M47.5,40.5  c0-0.551,0.449-1,1-1h1v2h-1c-0.352,0-0.686,0.072-1,0.184V40.5z M54.457,46.235c0.105,0.022,0.21,0.044,0.318,0.068  c0.112,0.025,0.226,0.052,0.34,0.08c0.085,0.02,0.17,0.04,0.255,0.061c0.203,0.05,0.406,0.103,0.605,0.156  c0.045,0.012,0.088,0.025,0.133,0.037c0.133,0.036,0.264,0.073,0.392,0.109v1.921c-1.279-0.347-3.113-0.767-4.121-0.643  c-0.316,0.038-0.605,0.129-0.879,0.242v-0.798c0-0.493,0.146-1.339,1.121-1.458c0.089-0.011,0.204-0.01,0.33-0.004  c0.062,0.003,0.134,0.011,0.203,0.017c0.072,0.007,0.144,0.013,0.224,0.023c0.088,0.011,0.181,0.025,0.276,0.04  c0.075,0.012,0.15,0.024,0.229,0.038c0.102,0.018,0.206,0.037,0.313,0.058C54.282,46.198,54.369,46.216,54.457,46.235z M42.5,79.842  c1.137-0.194,3.245-0.542,5-0.771v1.983c-1.693,0.214-3.738,0.546-5,0.759V79.842z M42.5,83.842c1.138-0.194,3.247-0.542,5-0.771  v1.984c-1.693,0.214-3.738,0.546-5,0.759V83.842z M47.5,76.5v0.554c-1.693,0.214-3.738,0.546-5,0.759v-1.971  c1.235-0.21,3.615-0.602,5.441-0.827C47.659,75.504,47.5,76.011,47.5,76.5z M42.5,87.842c1.137-0.194,3.245-0.542,5-0.771v1.983  c-1.693,0.214-3.738,0.546-5,0.759V87.842z M49.5,84.5c0-0.327,0.366-0.923,1.067-1.428c1.087-0.784,2.441-1.016,3.659-0.61  l6.274,1.793v1.92l-5.684-1.622c-1.752-0.583-3.726-0.268-5.316,0.832V84.5z M60.5,82.174l-5.684-1.622  c-1.752-0.584-3.726-0.269-5.316,0.832V80.5c0-0.327,0.366-0.923,1.067-1.428c1.087-0.784,2.441-1.015,3.659-0.61l6.274,1.793  V82.174z M49.886,73.138c-0.036-0.012-0.064-0.036-0.101-0.044c-0.618-0.133-1.258-0.162-1.903-0.087  c-1.756,0.209-4.024,0.577-5.382,0.806v-1.971c1.275-0.217,3.772-0.629,5.618-0.849c1.63-0.193,2.881,0.672,3.258,1.499  C50.86,72.638,50.36,72.857,49.886,73.138z M52.5,44.016c-0.04,0.003-0.083,0.004-0.121,0.008c-0.316,0.038-0.605,0.129-0.879,0.242  V43.5h1V44.016z M56.5,56.668c-1.279-0.346-3.113-0.765-4.12-0.645c-0.316,0.038-0.605,0.128-0.88,0.242v-0.799  c0-0.493,0.146-1.338,1.121-1.457c0.668-0.081,2.473,0.334,3.879,0.737V56.668z M51.5,59.466c0-0.493,0.146-1.338,1.121-1.457  c0.668-0.081,2.473,0.334,3.879,0.737v1.922c-1.278-0.346-3.111-0.766-4.12-0.644c-0.315,0.038-0.606,0.12-0.88,0.23V59.466z   M56.5,52.669c-1.279-0.345-3.113-0.763-4.12-0.645c-0.316,0.038-0.605,0.128-0.88,0.242v-0.799c0-0.493,0.146-1.339,1.121-1.458  c0.664-0.082,2.472,0.333,3.879,0.736V52.669z M52.621,62.009c0.668-0.081,2.473,0.334,3.879,0.737v1.92  c-0.94-0.256-2.179-0.551-3.173-0.638c-0.204-0.636-0.587-1.238-1.16-1.746c-0.032-0.029-0.069-0.053-0.102-0.081  C52.219,62.101,52.402,62.035,52.621,62.009z M53.5,66.058c0.849,0.12,2.019,0.406,3,0.687v1.92c-0.887-0.242-2.038-0.517-3-0.62  V66.058z M51.5,41.5v-1h1v1H51.5z M51.5,38.5v-1h1v1H51.5z M52.5,32.5h-1v-1h1V32.5z M52.5,34.5v1h-1v-1H52.5z M47.5,44.5  c0-0.551,0.449-1,1-1h1v2h-1c-0.352,0-0.686,0.072-1,0.184V44.5z M47.5,48.5c0-0.551,0.449-1,1-1h1V49v0.5h-1  c-0.352,0-0.686,0.072-1,0.184V48.5z M47.5,52.5c0-0.552,0.449-1,1-1h1v2h-1c-0.352,0-0.686,0.072-1,0.184V52.5z M47.5,56.5  c0-0.552,0.449-1,1-1h1v2h-1c-0.352,0-0.686,0.072-1,0.184V56.5z M51.5,69.806c-0.974-0.618-2.23-0.968-3.618-0.799  c-1.756,0.209-4.024,0.577-5.382,0.806v-1.971c1.275-0.217,3.772-0.629,5.618-0.849c1.009-0.127,2.032,0.171,2.721,0.783  C51.259,68.149,51.5,68.595,51.5,69V69.806z M47.5,91.071v0.764c-0.886-0.088-1.759-0.22-2.622-0.382  C45.738,91.318,46.659,91.181,47.5,91.071z M49.5,88.5c0-0.327,0.366-0.923,1.067-1.428c1.087-0.784,2.441-1.014,3.659-0.61  l6.274,1.793v1.919l-5.684-1.622c-1.752-0.583-3.726-0.268-5.316,0.832V88.5z M60.5,78.174l-5.684-1.622  c-1.752-0.584-3.726-0.268-5.316,0.832V76.5c0-0.327,0.366-0.923,1.067-1.428c1.087-0.784,2.441-1.015,3.659-0.61l6.274,1.792  V78.174z M54.816,72.552c-0.428-0.143-0.87-0.229-1.316-0.266v-2.227c0.849,0.12,2.019,0.406,3,0.687v2.287L54.816,72.552z   M52.5,28.5v1h-1v-1H52.5z M48.5,35.5h1v2h-1c-0.352,0-0.686,0.072-1,0.184V36.5C47.5,35.949,47.949,35.5,48.5,35.5z M48.118,62.993  c1.009-0.126,2.032,0.171,2.721,0.783C51.259,64.149,51.5,64.595,51.5,65v0.791c-1.038-0.651-2.312-0.939-3.618-0.784  c-1.756,0.209-4.024,0.577-5.382,0.806v-1.971C43.777,63.624,46.276,63.212,48.118,62.993z M49.707,91.966  c0.175-0.284,0.455-0.601,0.86-0.894c1.087-0.784,2.441-1.015,3.659-0.61l2.86,0.817c-2.107,0.459-4.292,0.708-6.535,0.708  C50.268,91.987,49.988,91.974,49.707,91.966z" fill="url(&quot;#SvgjsLinearGradient1588&quot;)"></path></g><g id="SvgjsG1585" featurekey="nameFeature-0" transform="matrix(0.9584496795637252,0,0,0.9584496795637252,0.9441930312477468,135.32918745152799)" fill="#FFFFFF"><path d="M16.4 12.36 c-1.32 6.28 -1.6 9.16 -2.8 15.72 c-0.64 3.56 -1.32 7.84 -3.16 10.8 c-1.4 2.24 -5.12 3.88 -7.08 2.72 c-0.4 -0.24 -0.68 -0.52 -0.92 -0.84 c-0.52 -0.04 -1.04 -0.2 -1.48 -0.48 c-2.32 -1.36 -2.12 -4.32 -1.64 -7.56 c3.6 1.72 5.4 0.48 6.56 -2.68 c1.48 -3.96 3.16 -16.24 3.44 -21.24 c2.12 -0.2 4.44 -0.08 5.92 1.32 c-0.08 0.52 -0.2 1.08 -0.32 1.56 c0.6 0.16 1.12 0.4 1.48 0.68 z M14.16 10.440000000000001 c-0.8 -0.64 -2.52 -0.84 -3.88 -0.72 c-0.32 4.48 -1.96 16.6 -3.44 20.64 c-1.24 3.36 -3.44 5.28 -6.72 3.84 c-0.28 1.88 -0.44 4.16 1.36 5.24 c1.84 1.08 5.4 -0.48 6.76 -2.68 c1.88 -2.96 2.56 -7.28 3.16 -10.72 c1.2 -6.52 1.48 -9.4 2.76 -15.6 z M32.04 12.96 c-3.6 8.88 -7.16 20.76 -8.32 29.04 c-0.72 0.64 -5.12 0.2 -6.48 -1.4 c-1.76 -0.44 -3.24 -1.4 -3.2 -3.04 c0.08 -9.48 0 -15.76 1.48 -25.4 c0.8 -1.32 4.2 -3.36 6.28 -1.48 c-0.12 0.56 -0.28 1.24 -0.4 1.96 c0.6 -0.08 1.16 0 1.52 0.32 c-0.36 1.52 -0.76 4.04 -1.12 7 c1.48 -4.96 2.84 -8.68 3.96 -11.52 c1.8 -0.52 5.04 0.6 5.08 2.68 l-0.16 0.4 c0.76 0.36 1.36 0.92 1.36 1.44 z M29.84 10.96 c-0.08 -0.88 -2.16 -1.92 -3.32 -1.68 c-1.76 4.4 -4.32 11.6 -6.92 23.12 c-0.16 0.56 -0.88 0.48 -0.92 -0.72 c-0.04 -6.48 1.16 -16.76 2 -20.64 c-1 -0.72 -3.52 0.44 -4.2 1.48 c-1.44 9.36 -1.36 15.64 -1.44 25.04 c-0.04 2.12 5.48 2.96 6.48 2.32 c1.2 -8.28 4.72 -20.12 8.32 -28.92 z M51.36 11.760000000000002 c-1.28 9.48 -2.4 19.6 -1.84 29 c-0.72 1 -4.16 2 -4.44 0.88 c-0.08 -0.28 -0.12 -0.64 -0.12 -1.08 c-1.28 0.16 -2.48 0 -2.64 -0.72 c-0.2 -0.84 -0.24 -2.2 -0.16 -3.64 c-0.16 0.04 -0.32 0.12 -0.48 0.2 c-0.4 0.96 -0.84 3 -0.8 4.56 c-1.28 0.84 -3.56 2.08 -4.32 1.4 c-0.2 -0.16 -0.24 -0.72 -0.16 -1.4 c-1.04 0.32 -1.92 0.4 -2.4 0 c-0.92 -0.8 0 -4.32 0.24 -5.44 c1.2 -5.6 3 -11.8 4.8 -17.28 c0.12 -0.48 0.76 -1 1.16 -1.32 c-0.68 0.24 -1.56 0.56 -3.08 1.16 c0.16 -2.52 1.4 -5.92 2.44 -6.84 c1.8 -1.56 6.88 -2.76 10.68 -2.16 c-0.12 0.88 -0.24 1.72 -0.32 2.56 c0.48 0 1 0.04 1.44 0.12 z M49.12 9.920000000000002 c-2.84 -0.4 -7.44 0.8 -8.88 2.08 c-0.72 0.6 -1.76 3.28 -2 4.56 c0.48 -0.16 3.84 -1.6 3.92 -0.32 c0.04 0.6 -2.04 1.92 -2.2 2.32 c-1.76 5.44 -3.52 11.6 -4.72 17.2 c-0.2 0.76 -0.44 1.8 -0.56 2.72 c-0.12 0.84 -0.24 1.56 0 1.72 c0.72 0.64 2.76 -0.56 4 -1.36 c0 -1.56 0.4 -3.56 0.84 -4.56 c1.08 -0.56 2.44 -0.96 3.88 -0.88 c-0.28 2.48 -0.4 5.08 -0.12 6.2 c0.28 1 3.28 0 4.04 -0.92 c-0.56 -9.32 0.52 -19.32 1.8 -28.76 z M44.63999999999999 17.72 c-0.28 3.52 -0.76 7.52 -1.2 11.04 c-0.76 0.08 -2.12 0.32 -3.08 0.68 c0.8 -3.92 2.16 -8.16 3.72 -11.72 c0.12 -0.28 0.6 -0.36 0.56 0 z M61.919999999999995 14.399999999999999 c1.44 -0.8 0.4 -5.12 -0.92 -6.2 c-5.04 3.68 -10.32 10.36 -9.88 15.24 c0.16 1.92 1.04 2.8 2.36 3.96 c1.04 0.88 2 1.72 1.44 3.64 c-0.64 2.36 -2.76 3.64 -4.92 4.4 c0.28 1.56 1.4 4.04 2.84 3.76 c3.16 -0.6 5.6 -4.16 6.44 -7.24 c0.88 -3.44 -2.36 -5.16 -3.64 -7.84 c-1.56 -3.32 2.52 -7.68 6.28 -9.72 z M73.24 14.96 c0.2 -2 -0.52 -4.04 -1.48 -5.08 c-5.6 3.68 -10.56 9.84 -10.12 15.16 c0.24 3.48 4.76 4.32 4.72 7.84 c-0.04 2.52 -3.48 3.64 -5.36 4 c0 1.96 1.36 4.12 3.4 3.44 c3.12 -1 5.8 -3.68 6.52 -6.64 c1.16 -4.8 -5.6 -6.64 -4.76 -10.64 c0.6 -2.8 2.88 -4.92 5.72 -6.44 c1.08 -0.56 1.24 -0.8 1.36 -1.64 z M75.44 17 c-0.12 0.92 -0.36 1.2 -1.48 1.8 c-2.8 1.48 -5.04 3.56 -5.6 6.28 c-0.08 0.4 -0.08 0.8 0 1.2 c1.28 1.6 3 2.92 3.52 4.92 c0.96 1.28 1.68 2.68 1.24 4.52 c-0.76 3.04 -3.48 5.76 -6.64 6.8 c-1.28 0.44 -2.24 -0.12 -2.88 -1.04 c-2.12 0.04 -3.28 -2.16 -3.52 -4.28 c-1.24 2.04 -3.04 3.76 -5.2 4.2 c-0.8 0.12 -1.48 -0.4 -2 -1.2 c-2.04 0.2 -3.64 -3 -4 -5.44 c2.8 -0.92 4.56 -2.08 5.08 -4 c0.52 -1.76 -0.92 -2.32 -1.92 -3.32 c-1.16 -1.08 -1.76 -2.32 -1.92 -3.92 c-0.48 -5.48 5.28 -12.52 10.88 -16.56 c0.76 0.52 1.52 1.68 2.04 3 c0.96 0.68 1.84 3.08 1.76 4.8 c1.96 -2.32 4.48 -4.48 7.12 -6.16 c0.84 0.84 1.48 1.88 1.88 3.04 l0 -0.04 c1.04 1.08 1.84 3.24 1.64 5.4 z M61.43999999999999 34 c-0.16 0.64 -0.4 1.28 -0.68 1.92 c2.08 -0.44 4.56 -1.2 4.6 -3.08 c0.04 -2.84 -4.44 -3.8 -4.72 -7.72 c-0.24 -2.64 0.72 -5.4 2.4 -8 c-3.16 2.04 -6.08 5.44 -5.44 8.24 c1.04 1.32 2.24 2.44 2.68 4.04 c0.88 1.36 1.68 2.68 1.16 4.6 z M87.99999999999999 13.879999999999999 c2.28 7.8 0.12 16.84 -2.96 22.96 c-1.04 2.12 -2.64 4.48 -5.32 4.48 c-0.96 0 -1.92 -0.56 -2.56 -1.24 c-1.56 -0.28 -2.88 -1.48 -3.36 -2.68 c-1.8 -4.8 -0.92 -11.44 0.24 -16.4 c0.84 -3.48 2.16 -6.84 4.04 -9.92 c1.04 -1.68 2.84 -2.88 4.84 -2.72 c1.88 0.16 3.4 1.68 3.88 3.32 c0.04 0.12 0.08 0.28 0.12 0.44 c0.52 0.52 0.92 1.12 1.08 1.76 z M85.83999999999999 11.920000000000002 c-0.4 -1.24 -1.6 -2.44 -3 -2.56 c-1.52 -0.12 -3.04 0.8 -3.88 2.24 c-1.84 2.96 -3.12 6.24 -3.92 9.64 c-1.2 4.92 -2 11.32 -0.28 15.8 c0.36 1 1.64 2.08 2.96 2.08 c2.52 0 4.08 -2.24 5.16 -4.36 c3.04 -6.12 5.2 -15.08 2.96 -22.84 z M83.07999999999998 22.64 c-0.48 3.84 -2.16 8.72 -3.96 10.72 c-0.44 0.44 -1.36 0.68 -1.52 -0.48 c-0.72 -5.68 0.48 -11.76 3.2 -16.6 c0.32 -0.56 1.32 -1.04 1.76 -0.4 c0.88 1.28 0.8 4.72 0.52 6.76 z M82.27999999999999 19.76 c-1.64 3.36 -2.56 7.2 -2.68 11.08 c1.16 -2.24 2.16 -5.52 2.52 -8.36 c0.08 -0.84 0.16 -1.8 0.16 -2.72 z M101.15999999999998 17.04 c-4.84 2.72 -8.96 9.08 -8.2 16.56 c0.08 0.04 0.2 0.12 0.28 0.16 c1.08 0.48 2.8 -0.64 4.92 -2.2 c0.36 1.2 0.48 2.68 0.32 4.12 c0.44 -0.24 0.84 -0.52 1.24 -0.8 c0.4 1.36 0 5.12 -1.64 6.6 c-1.36 1.2 -4.04 1.48 -5.56 0.24 c-0.2 -0.16 -0.36 -0.32 -0.56 -0.48 c-0.72 -0.16 -1.36 -0.44 -1.96 -0.88 c-4.96 -4 -4.12 -13.56 -2.16 -18.72 c2.44 -6.48 7.44 -12.28 11.24 -13.6 c0.36 0.44 0.8 1.76 1.08 3.24 c0.24 -0.12 0.44 -0.2 0.64 -0.28 c0.36 0.44 1.84 5.2 0.36 6.04 z M99.07999999999998 14.879999999999999 c1.32 -0.76 0.08 -4.8 -0.36 -5.64 c-2.84 1.12 -7.6 6.48 -9.96 12.76 c-1.92 5.16 -2.52 14.04 1.88 17.56 c1.44 1.16 4 0.92 5.32 -0.24 c1.44 -1.32 1.88 -4.6 1.64 -6.12 c-1.4 1 -3.44 2.08 -4.76 1.48 c-1.2 -0.56 -1.92 -1.84 -2.08 -2.96 c-0.8 -7.6 3.36 -14.08 8.32 -16.84 z M115.95999999999998 11.559999999999999 c0.32 0.08 -0.2 4.08 -1.44 5.4 c-0.52 0.56 -2.28 0.08 -3.24 0.64 c-0.72 2.84 -1.88 9.44 -2.56 15.04 c0.48 -0.12 1.04 -0.28 1.64 -0.48 c0.28 1.2 0.28 2.36 0.12 3.36 c0.6 -0.12 1.04 -0.24 1.32 -0.36 c0.4 1.92 -0.52 4.32 -1.28 5 c-1.32 1.24 -7.08 2.48 -8.84 2.36 c-0.56 -0.08 -0.76 -0.52 -0.76 -1.24 c-0.52 0.04 -1 0.04 -1.32 0.04 c-2.08 -0.2 -1.64 -2.68 -0.6 -6.76 c0.72 0 1.56 -0.12 2.72 -0.36 c0.36 -5.6 1.52 -9.6 2.48 -15.36 c-0.32 0.08 -0.6 0.16 -0.76 0.24 c-0.08 -0.4 -0.04 -1.24 0.2 -2.12 c-0.96 0.4 -2.04 0.92 -2.88 1.2 c-0.28 -2.08 0.2 -5.6 2.36 -7.12 c1.92 -1.28 8.6 -2.44 11.6 -2.32 c0.16 0.48 0.16 1.36 -0.04 2.88 c0.48 -0.04 0.92 -0.04 1.28 -0.04 z M113.91999999999999 9.760000000000002 c-2.84 -0.08 -8.56 1 -10.24 2.12 c-1.6 1.08 -2.12 3.8 -2.08 4.92 c1.44 -0.44 5.24 -1.44 5.44 -0.72 c0.28 0.96 -1.68 2 -1.8 2.76 c-1 6.04 -2.24 10.08 -2.56 16.2 c-1.36 0.28 -2.44 0.48 -2.92 0.52 c-0.68 2.68 -1.2 4.64 -0.04 4.76 c1.68 0.12 7.4 -1.12 8.68 -2.32 c0.68 -0.6 1.52 -2.76 1.24 -4.56 c-0.64 0.16 -1.88 0.48 -3.56 0.84 c0.64 -6.32 2.12 -15.28 3 -18.8 c0.64 -0.36 1.28 -0.36 2 -0.4 c0.56 0 1.08 0 1.32 -0.24 c0.56 -0.64 1 -1.92 1.24 -3.08 c0.2 -1.04 0.44 -1.92 0.28 -2 z M127.71999999999998 11.760000000000002 c-1.28 9.48 -2.4 19.6 -1.84 29 c-0.72 1 -4.16 2 -4.44 0.88 c-0.08 -0.28 -0.12 -0.64 -0.12 -1.08 c-1.28 0.16 -2.48 0 -2.64 -0.72 c-0.2 -0.84 -0.24 -2.2 -0.16 -3.64 c-0.16 0.04 -0.32 0.12 -0.48 0.2 c-0.4 0.96 -0.84 3 -0.8 4.56 c-1.28 0.84 -3.56 2.08 -4.32 1.4 c-0.2 -0.16 -0.24 -0.72 -0.16 -1.4 c-1.04 0.32 -1.92 0.4 -2.4 0 c-0.92 -0.8 0 -4.32 0.24 -5.44 c1.2 -5.6 3 -11.8 4.8 -17.28 c0.12 -0.48 0.76 -1 1.16 -1.32 c-0.68 0.24 -1.56 0.56 -3.08 1.16 c0.16 -2.52 1.4 -5.92 2.44 -6.84 c1.8 -1.56 6.88 -2.76 10.68 -2.16 c-0.12 0.88 -0.24 1.72 -0.32 2.56 c0.48 0 1 0.04 1.44 0.12 z M125.47999999999998 9.920000000000002 c-2.84 -0.4 -7.44 0.8 -8.88 2.08 c-0.72 0.6 -1.76 3.28 -2 4.56 c0.48 -0.16 3.84 -1.6 3.92 -0.32 c0.04 0.6 -2.04 1.92 -2.2 2.32 c-1.76 5.44 -3.52 11.6 -4.72 17.2 c-0.2 0.76 -0.44 1.8 -0.56 2.72 c-0.12 0.84 -0.24 1.56 0 1.72 c0.72 0.64 2.76 -0.56 4 -1.36 c0 -1.56 0.4 -3.56 0.84 -4.56 c1.08 -0.56 2.44 -0.96 3.88 -0.88 c-0.28 2.48 -0.4 5.08 -0.12 6.2 c0.28 1 3.28 0 4.04 -0.92 c-0.56 -9.32 0.52 -19.32 1.8 -28.76 z M120.99999999999999 17.72 c-0.28 3.52 -0.76 7.52 -1.2 11.04 c-0.76 0.08 -2.12 0.32 -3.08 0.68 c0.8 -3.92 2.16 -8.16 3.72 -11.72 c0.12 -0.28 0.6 -0.36 0.56 0 z M143.31999999999996 11.239999999999998 c0.16 1.04 -0.36 4.4 -1.64 4.96 c-1.04 0.44 -2.88 -0.04 -4.16 0.52 c-2.2 9.52 -3.28 15.52 -4.04 26.08 c-0.92 0.4 -2.92 -0.32 -3.8 -1.4 c-1.76 -0.4 -3.48 -1.68 -3.28 -3.28 c0.32 -2.72 1.92 -15.28 3.6 -19.92 c-0.48 0.16 -0.88 0.28 -1.2 0.36 c0 -0.6 0.08 -1.24 0.2 -1.88 c-0.88 0.28 -1.88 0.6 -3 0.92 c0 -3 0.76 -5.36 1.96 -6.56 c1.48 -1.52 11.24 -3.12 14.08 -2.44 c0.08 0.6 0.08 1.56 -0.08 2.6 c0.6 -0.04 1.08 -0.04 1.36 0.04 z M141.11999999999998 9.399999999999999 c-1.48 -0.2 -3.84 0.24 -5.36 0.4 c-1.96 0.24 -6.32 1.16 -7.08 1.96 c-0.92 0.88 -1.6 2.8 -1.68 4.52 c0.88 -0.24 5.48 -1.92 5.92 -1 c0.28 0.6 -0.68 1.32 -1.08 1.72 c-0.36 0.36 -0.68 0.72 -0.8 1.2 c-1.76 6.68 -2.84 13.16 -3.64 20.04 c-0.16 1.32 2.68 2.8 3.88 2.4 c0.76 -10.48 1.84 -16.48 4.08 -26.08 c1.44 -0.64 3.2 -0.08 4.24 -0.56 c1.08 -0.44 1.64 -3.44 1.52 -4.6 z M155.64 11.04 c0.12 1.04 -0.76 4.32 -2.04 4.88 c-1.04 0.44 -2.84 0.24 -4.12 0.8 c-0.32 0.68 -0.72 1.92 -1.04 3.24 c0.72 -0.16 1.44 -0.28 2.4 -0.28 c0.28 1.08 0.2 2.12 -0.08 3 c0.52 -0.12 1.04 -0.2 1.48 -0.2 c0.4 1.76 -0.92 3.92 -2.08 4.72 c-0.64 0.44 -2.2 0.72 -3 1.04 c-0.36 1.2 -0.64 3.12 -0.88 4.88 l2.76 -0.84 c0.24 1.24 0.2 2.4 0 3.44 c0.48 -0.16 0.92 -0.32 1.4 -0.44 c0.4 1.92 -0.72 4.32 -1.56 5 c-1.56 1.24 -4.8 1.96 -6.68 1.56 c-0.48 -0.08 -0.92 -0.56 -1.04 -1.08 c-0.4 -0.04 -0.8 -0.08 -1.12 -0.12 c-0.96 -0.2 -1.8 -1.24 -1.72 -2.4 c0.64 -7.08 1.88 -13.56 3.36 -20.24 c0.16 -0.76 0.64 -1.28 1.16 -1.72 c-0.28 0.08 -0.6 0.2 -0.88 0.28 c-0.52 0.16 -0.96 0.24 -2 0.2 c0.08 -2.44 1.28 -5.08 2.48 -6.24 c1.44 -1.44 9.44 -2.72 11.96 -2.12 c0.04 0.64 0 1.6 -0.24 2.56 c0.64 0 1.16 0 1.48 0.08 z M153.47999999999996 9.2 c-2 -0.32 -9.24 0.96 -10.36 2.04 c-0.96 0.92 -1.96 3.12 -2.12 4.56 c1.04 -0.2 2.12 -0.8 3.16 -0.88 c0.96 -0.08 0.76 0.68 0.32 1.16 c-0.6 0.64 -1.6 1.24 -1.8 2.12 c-1.48 6.64 -2.72 13.08 -3.36 20.12 c-0.04 0.64 0.44 1.24 0.92 1.32 c1.84 0.36 5 -0.32 6.52 -1.52 c0.76 -0.6 1.76 -2.8 1.52 -4.56 c-1.4 0.4 -3.16 1.04 -4.56 1.04 c0.16 -1.8 0.6 -6.24 1.28 -8.52 c0.8 -0.32 2.4 -0.6 3.04 -1.04 c1.08 -0.76 2.32 -2.72 2.04 -4.36 c-0.6 0.04 -1.28 0.2 -2 0.4 c-0.8 0.24 -1.56 0.48 -2.44 0.6 c0.16 -2.6 1.04 -5.76 1.68 -7.12 c1.08 -0.44 2.2 -0.44 3.36 -0.6 c0.32 -0.04 0.6 -0.12 0.84 -0.24 c1.12 -0.48 1.96 -3.36 1.96 -4.52 z M165.35999999999999 17.52 c-3.48 1.92 -7.08 5.72 -6.4 8.8 c1.04 1.32 2.24 2.44 2.68 4.04 c0.88 1.36 1.68 2.68 1.16 4.6 c-0.8 3.12 -3.28 6.76 -6.56 7.4 c-0.8 0.12 -1.48 -0.4 -2 -1.2 c-2.04 0.2 -3.64 -3 -4 -5.44 c2.8 -0.92 4.56 -2.08 5.08 -4 c0.52 -1.76 -0.92 -2.32 -1.92 -3.32 c-1.16 -1.08 -1.76 -2.32 -1.92 -3.92 c-0.48 -5.48 5.28 -12.52 10.88 -16.56 c0.76 0.52 1.52 1.68 2.04 3 c1.4 1 2.68 5.64 0.96 6.6 z M163.28 15.36 c1.44 -0.8 0.4 -5.12 -0.92 -6.2 c-5.04 3.68 -10.32 10.36 -9.88 15.24 c0.16 1.92 1.04 2.8 2.36 3.96 c1.04 0.88 2 1.72 1.44 3.64 c-0.64 2.36 -2.76 3.64 -4.92 4.4 c0.28 1.56 1.4 4.04 2.84 3.76 c3.16 -0.6 5.6 -4.16 6.44 -7.24 c0.88 -3.44 -2.36 -5.16 -3.64 -7.84 c-1.56 -3.32 2.52 -7.68 6.28 -9.72 z M179.2 32.84 c-1.4 0.12 -3.16 0.48 -4.76 0.68 c0.2 -6.08 3.08 -17.56 4.52 -22.56 c-1.2 -1.88 -3.52 -2.16 -3.96 -0.72 c-1.36 4.28 -4.08 18.28 -4.48 27.4 c-0.04 0.84 0.32 1.24 1.28 1.2 c1.96 -0.08 4.28 -0.52 5.8 -1.88 c1.28 -1.16 1.56 -2.84 1.6 -4.12 z M190.35999999999999 32.6 c-0.36 0.04 -0.76 0.16 -1.16 0.28 c-1.32 0.44 -2.92 1.16 -4.28 1.2 c0.76 -7.48 2.84 -15.08 4.12 -21.48 c0.28 -1.36 -1.8 -3.16 -3.44 -2.76 c-1.32 5.84 -3.32 18.72 -4.32 24.12 c-0.52 2.68 -0.44 5.12 0.24 5.36 c1.32 0.44 5.28 -0.52 7.16 -1.76 c1.76 -1.08 2.2 -4.24 1.68 -4.96 z M192.44 34.36 c0.76 0.72 0.2 4.2 -1.64 5.36 c-1.92 1.24 -5.92 2.28 -7.36 1.8 c-0.32 -0.12 -0.48 -0.52 -0.6 -1.12 c-0.64 0.04 -1.24 0 -1.64 -0.12 c-0.44 -0.16 -0.76 -0.76 -0.96 -1.68 c-0.16 0.16 -0.32 0.36 -0.52 0.52 c-1.56 1.4 -3.92 1.84 -5.88 1.92 c-1.04 0.04 -1.48 -0.36 -1.52 -1.24 c-0.16 0.04 -0.32 0.04 -0.48 0.04 c-1.52 0.08 -2.4 -0.8 -2.32 -2.24 c0.44 -9.2 3.12 -23.28 4.52 -27.68 c0.76 -2.36 4.28 -1.92 6 0.92 l-0.2 0.76 c0.52 0.32 1 0.76 1.36 1.36 c-1.2 4.16 -3.48 13 -4.28 19.2 c0.92 -0.16 1.96 -0.32 3.24 -0.36 c0.04 1 0 2.04 -0.24 3 c0.08 0 0.12 0 0.2 -0.04 c0.04 -0.32 0.08 -0.64 0.16 -1 c1.04 -5.4 3.08 -18.48 4.44 -24.68 c2.52 -0.8 5.36 1.16 5.36 3.24 c0.8 0.64 1.32 1.52 1.16 2.32 c-1.08 5.36 -2.72 11.6 -3.64 17.76 c1 -0.36 2 -0.72 3.08 -0.88 c0.72 0.68 0.92 1.88 0.72 3.08 c0.4 -0.08 0.72 -0.16 1.04 -0.24 z M207.04 17.04 c-4.84 2.72 -8.96 9.08 -8.2 16.56 c0.08 0.04 0.2 0.12 0.28 0.16 c1.08 0.48 2.8 -0.64 4.92 -2.2 c0.36 1.2 0.48 2.68 0.32 4.12 c0.44 -0.24 0.84 -0.52 1.24 -0.8 c0.4 1.36 0 5.12 -1.64 6.6 c-1.36 1.2 -4.04 1.48 -5.56 0.24 c-0.2 -0.16 -0.36 -0.32 -0.56 -0.48 c-0.72 -0.16 -1.36 -0.44 -1.96 -0.88 c-4.96 -4 -4.12 -13.56 -2.16 -18.72 c2.44 -6.48 7.44 -12.28 11.24 -13.6 c0.36 0.44 0.8 1.76 1.08 3.24 c0.24 -0.12 0.44 -0.2 0.64 -0.28 c0.36 0.44 1.84 5.2 0.36 6.04 z M204.95999999999998 14.879999999999999 c1.32 -0.76 0.08 -4.8 -0.36 -5.64 c-2.84 1.12 -7.6 6.48 -9.96 12.76 c-1.92 5.16 -2.52 14.04 1.88 17.56 c1.44 1.16 4 0.92 5.32 -0.24 c1.44 -1.32 1.88 -4.6 1.64 -6.12 c-1.4 1 -3.44 2.08 -4.76 1.48 c-1.2 -0.56 -1.92 -1.84 -2.08 -2.96 c-0.8 -7.6 3.36 -14.08 8.32 -16.84 z" fill="#FFFFFF"></path></g></svg>