<svg xmlns:xlink="http://www.w3.org/1999/xlink" xmlns="http://www.w3.org/2000/svg" viewBox="0 0 200 59" height="59" width="200" style="width: 200px; height: 59px; position: absolute; top: 50%; left: 50%; transform: translate(-50%, -50%) scale(0.858); z-index: 0; cursor: pointer;"><defs id="SvgjsDefs1213"></defs><g id="SvgjsG1214" featurekey="rootContainer" transform="matrix(1,0,0,1,0,0)" fill="#111111"><rect y="0" height="1" width="1" opacity="0" fill="#111111"></rect><rect y="54" width="200" height="5" fill="#111111"></rect></g><g id="SvgjsG1215" featurekey="nameFeature-0" transform="matrix(0.6427519701785682,0,0,0.6427519701785682,-0.7716563885295215,11.032568545188152)" fill="#111111"><path d="M1.96 48.6 c-0.6 0 -0.96 -1.36 -0.64 -1.4 c1.8 -0.2 3.72 -2.24 3.72 -6.96 l0 -23.4 c0 -2.8 -1.6 -3.36 -3.32 -3.6 c-0.32 -0.04 -0.08 -1.24 0.24 -1.24 l10.96 0 c0.32 0 0.56 1.2 0.24 1.24 c-1.72 0.24 -3.32 0.8 -3.32 3.6 l0 23.4 c0 4.04 -5.12 8.36 -7.88 8.36 z M43.97 12 c0.44 0 0.6 1.28 0.08 1.36 c-1.6 0.24 -2.64 0.88 -4.08 4.24 l-6.76 15.72 c-1.4 3.24 -2.04 5.08 -2.04 6.68 c0 0.24 -2.76 0.88 -2.88 0.6 l-9.72 -22.96 c-1.44 -3.44 -2.52 -4.04 -4.08 -4.28 c-0.52 -0.08 -0.4 -1.36 0.12 -1.36 l10.52 0 c0.52 0 0.6 1.28 0.12 1.36 c-1.48 0.24 -2.96 0.88 -1.56 4.24 l6.76 16.24 l6.76 -16.24 c1.44 -3.44 -0.16 -3.96 -2 -4.24 c-0.52 -0.08 -0.4 -1.36 0.12 -1.36 l8.64 0 z M80.35000000000001 38.64 c0.56 0.08 0.4 1.36 -0.08 1.36 l-10.56 0 c-0.52 0 -0.56 -1.28 -0.12 -1.36 c1.48 -0.28 3.08 -0.8 1.6 -4.24 l-0.44 -1 c-0.4 -0.96 -1.08 -1.04 -2.28 -1.04 l-8.16 0 c-1.2 0 -1.88 0.08 -2.28 1.04 l-0.4 1 c-1.4 3.44 0.12 3.96 2.04 4.24 c0.52 0.08 0.4 1.36 -0.12 1.36 l-8.64 0 c-0.48 0 -0.6 -1.28 -0.12 -1.36 c1.64 -0.28 2.6 -0.84 4.08 -4.24 l6.76 -15.52 c1.56 -3.52 2.04 -5.16 2.04 -6.68 c0 -0.24 2.8 -0.88 2.92 -0.6 l9.76 22.76 c1.44 3.4 2.4 4.04 4 4.28 z M68.19 30.119999999999997 c0.56 0 1.16 -0.08 0.92 -0.64 l-4.68 -11.2 l-4.72 11.2 c-0.24 0.56 0.36 0.64 0.92 0.64 l7.56 0 z M88 40.64 c-3.24 0 -6.64 -1.32 -6.2 -2.52 l0.64 -1.68 c0.92 -2.44 2.56 1.76 7.04 1.76 c3.88 0 4.4 -2.56 1.32 -4.12 l-5.24 -2.64 c-6.12 -3.08 -4.08 -10.76 3.76 -10.76 c2.96 0 6 1.2 5.52 2.36 l-0.68 1.68 c-0.96 2.4 -2.48 -1.56 -6.44 -1.56 c-3.04 0 -3.6 2.56 -0.8 3.96 l5.44 2.76 c6.4 3.24 4.24 10.76 -4.36 10.76 z M103.97 40.64 c-3.24 0 -6.64 -1.32 -6.2 -2.52 l0.64 -1.68 c0.92 -2.44 2.56 1.76 7.04 1.76 c3.88 0 4.4 -2.56 1.32 -4.12 l-5.24 -2.64 c-6.12 -3.08 -4.08 -10.76 3.76 -10.76 c2.96 0 6 1.2 5.52 2.36 l-0.68 1.68 c-0.96 2.4 -2.48 -1.56 -6.44 -1.56 c-3.04 0 -3.6 2.56 -0.8 3.96 l5.44 2.76 c6.4 3.24 4.24 10.76 -4.36 10.76 z M123.22 40.64 c-5.56 0 -9.72 -4 -9.72 -9.8 c0 -5.64 4 -10.16 9.88 -10.16 c5.56 0 9.72 4 9.72 9.8 c0 5.64 -3.96 10.16 -9.88 10.16 z M124.38 38.24 c1.96 0 4.36 -1.2 4.36 -5.8 c0 -5.24 -2.84 -9.36 -6.56 -9.36 c-1.92 0 -4.32 1.2 -4.32 5.76 c0 5.28 2.84 9.4 6.52 9.4 z M145.47 40.64 c-4.36 0 -10.72 -2.6 -10.72 -9.52 c0 -4.64 2.92 -10.44 10.72 -10.44 c2.4 0 5.56 0.76 5.24 1.96 l-0.36 1.4 c-0.92 3.64 -2.84 -0.72 -6.96 -0.72 c-2.92 0 -4.32 2.36 -4.32 5.56 c0 5.64 4.72 8.68 7.6 8.68 c0.4 0 1.68 -0.24 3.56 -0.68 c0.36 -0.08 0.68 1 0.44 1.12 c-1.56 0.84 -4.44 2.64 -5.2 2.64 z M156.79999999999998 16.92 c-0.88 0 -3.04 -1.88 -3.04 -3.04 s2.16 -3.04 3.04 -3.04 s3.04 1.88 3.04 3.04 s-2.16 3.04 -3.04 3.04 z M152.43999999999997 40 c-0.32 0 -0.6 -1.16 -0.28 -1.2 c1.24 -0.16 2.8 -0.72 2.8 -3.04 l0 -8.84 c0 -2.44 -0.64 -3.04 -2.72 -3.32 c-0.32 -0.04 -0.2 -1.08 0.08 -1.16 l7.08 -1.68 c0.4 -0.08 0.6 0.2 0.48 0.72 c-0.28 1.28 -0.64 3.64 -0.64 6.24 l0 8.04 c0 2.32 1.56 2.88 2.8 3.04 c0.28 0.04 0.04 1.2 -0.28 1.2 l-9.32 0 z M168.69 40.64 c-2.76 0 -5.48 -1.64 -5.48 -4.88 c0 -2.16 1.28 -3.32 4.16 -4.24 l5.84 -1.88 c1.2 -0.4 1.56 -0.44 1.56 -1.44 l0 -1.6 c0 -2.48 -1.24 -2.76 -2.8 -2.76 c-2.12 0 -4.64 0.56 -6.12 0.72 c-0.36 0.04 -0.6 -0.16 -0.64 -0.44 l-0.08 -0.72 c-0.12 -1.04 5.96 -2.72 9 -2.72 c4.64 0 4.96 3.68 4.96 6.52 l0 8.44 c0 3.36 2.88 2 3.44 2.36 c0.2 0.12 0.28 0.4 0.28 0.56 c0 0.84 -3.4 2.08 -5.08 2.08 c-1.28 0 -2.08 -0.72 -3.04 -2.76 c-3.8 2.32 -4.64 2.76 -6 2.76 z M170.60999999999999 37.68 c2.04 0 4.2 -1.44 4.2 -3.48 l0 -3.12 c-0.24 0.16 -0.2 0.2 -0.96 0.44 l-4.04 1.36 c-1.28 0.44 -1.92 1.12 -1.92 2.32 c0 1.52 1.04 2.48 2.72 2.48 z M189.94 40.64 c-1.64 0 -3.84 -1.52 -3.84 -2.68 l0 -11.56 c0 -2.32 -0.68 -3 -3.48 -3 c-0.44 0 -0.44 -1.24 -0.12 -1.36 c3.04 -1.2 4.52 -2.28 6.68 -4.76 c0.52 -0.6 1.6 0 1.44 0.68 c-0.16 0.72 -0.24 1.32 -0.24 1.8 c0 1.44 0.64 1.88 1.6 1.88 c1.48 0 3.32 -0.4 4.76 -0.52 c0.4 -0.04 0.56 0.32 0.56 0.84 c0 1.04 -0.64 2.52 -1.28 2.48 l-1.56 -0.12 c-2.72 -0.2 -4.12 -0.16 -4.12 1.68 l0 9.44 c0 1.52 0.76 2.08 2.16 2.08 c1.24 0 3.44 -0.24 4.52 -0.36 c0.32 -0.04 0.68 1.16 0.28 1.32 c-2.2 0.88 -4.08 1.44 -7.36 2.16 z M214.87 36.92 c0.36 -0.08 0.68 1 0.44 1.12 c-1.56 0.76 -4.8 2.6 -5.56 2.6 c-4.92 0 -11.24 -2.32 -11.24 -9.4 c0 -4.76 2.92 -10.56 10.08 -10.56 c6.04 0 6.8 4.32 6.8 6 c0 1.04 -0.32 2.6 -0.72 3.52 l-11.88 0.32 c0.76 4.96 4.8 7.04 7.96 7.04 c0.36 0 2.08 -0.2 4.12 -0.64 z M207.19 23.24 c-3.16 0 -4.4 2.16 -4.52 5.2 l8.68 -0.28 c0.4 -2.16 -0.64 -4.92 -4.16 -4.92 z M223.68 40.64 c-3.24 0 -6.64 -1.32 -6.2 -2.52 l0.64 -1.68 c0.92 -2.44 2.56 1.76 7.04 1.76 c3.88 0 4.4 -2.56 1.32 -4.12 l-5.24 -2.64 c-6.12 -3.08 -4.08 -10.76 3.76 -10.76 c2.96 0 6 1.2 5.52 2.36 l-0.68 1.68 c-0.96 2.4 -2.48 -1.56 -6.44 -1.56 c-3.04 0 -3.6 2.56 -0.8 3.96 l5.44 2.76 c6.4 3.24 4.24 10.76 -4.36 10.76 z M238.66 40.08 c-0.4 0.04 -0.56 -1.36 -0.24 -1.44 c2.32 -0.6 4.12 -0.96 4.12 -3.92 l0 -17.76 c0 -2.8 -1.64 -3.36 -3.36 -3.6 c-0.32 -0.04 -0.08 -1.36 0.2 -1.36 l11.04 0 c0.28 0 0.48 1.32 0.2 1.36 c-1.68 0.2 -3.28 0.8 -3.28 3.6 l0 17.76 c0 2.28 0.96 3.12 4.28 3.12 c6.04 0 8.44 -2.76 9.4 -4.28 c0.28 -0.44 1.36 -0.24 1.36 0.44 c0 2.04 -1.72 6.08 -4.24 6.08 c-2.24 -0.12 -4.44 -0.24 -7.8 -0.24 c-3.68 0 -8.04 -0.12 -11.68 0.24 z M263.03 40.08 c-0.4 0.04 -0.56 -1.36 -0.24 -1.44 c2.32 -0.6 4.12 -0.96 4.12 -3.92 l0 -17.76 c0 -2.8 -1.64 -3.36 -3.36 -3.6 c-0.32 -0.04 -0.08 -1.36 0.2 -1.36 l11.04 0 c0.28 0 0.48 1.32 0.2 1.36 c-1.68 0.2 -3.28 0.8 -3.28 3.6 l0 17.76 c0 2.28 0.96 3.12 4.28 3.12 c6.04 0 8.44 -2.76 9.4 -4.28 c0.28 -0.44 1.36 -0.24 1.36 0.44 c0 2.04 -1.72 6.08 -4.24 6.08 c-2.24 -0.12 -4.44 -0.24 -7.8 -0.24 c-3.68 0 -8.04 -0.12 -11.68 0.24 z M304 40.64 c-6.72 0 -15.8 -3.92 -15.8 -14.12 c0 -6.92 4.24 -15.16 15.44 -15.16 c4.64 0 8.64 1.44 8.16 2.84 l-0.52 1.56 c-1.44 4.28 -3 -1.2 -10.12 -1.2 c-5.72 0 -8.52 3.72 -8.52 9.48 c0 9 6.84 12.76 12.32 12.76 c0.72 0 4.36 -0.56 6.44 -1.88 c0.32 -0.2 1.16 0.72 0.92 1.08 c-1.72 2.52 -7.08 4.64 -8.32 4.64 z" fill="#111111"></path></g></svg>